<mxfile host="Electron" modified="2023-09-21T06:44:13.059Z" agent="Mozilla/5.0 (Windows NT 10.0; Win64; x64) AppleWebKit/537.36 (KHTML, like Gecko) draw.io/21.5.0 Chrome/112.0.5615.204 Electron/24.5.1 Safari/537.36" etag="HV9mhPuzhY4ZLAoWkUxD" version="21.5.0" type="device">
  <diagram name="Page-1" id="kCfVXJoL_dmyVYq_A1QM">
    <mxGraphModel dx="2390" dy="1473" grid="0" gridSize="10" guides="1" tooltips="1" connect="1" arrows="1" fold="1" page="1" pageScale="1" pageWidth="2339" pageHeight="3300" math="0" shadow="0">
      <root>
        <mxCell id="0" />
        <mxCell id="1" parent="0" />
        <mxCell id="cLwnY9_HZELoblNR_DfB-37" style="edgeStyle=orthogonalEdgeStyle;rounded=0;sketch=1;hachureGap=4;jiggle=2;curveFitting=1;orthogonalLoop=1;jettySize=auto;html=1;entryX=0;entryY=0.76;entryDx=0;entryDy=0;entryPerimeter=0;fontFamily=Times New Roman;fontSize=16;startArrow=none;startFill=0;endArrow=none;endFill=0;" parent="1" source="cLwnY9_HZELoblNR_DfB-1" target="cLwnY9_HZELoblNR_DfB-6" edge="1">
          <mxGeometry relative="1" as="geometry" />
        </mxCell>
        <mxCell id="cLwnY9_HZELoblNR_DfB-1" value="&amp;lt;&amp;lt;Class&amp;gt;&amp;gt; Functions&amp;nbsp;" style="swimlane;fontStyle=0;childLayout=stackLayout;horizontal=1;startSize=30;horizontalStack=0;resizeParent=1;resizeParentMax=0;resizeLast=0;collapsible=1;marginBottom=0;whiteSpace=wrap;html=1;sketch=1;hachureGap=4;jiggle=2;curveFitting=1;fontFamily=Times New Roman;fontSize=20;" parent="1" vertex="1">
          <mxGeometry x="440" y="910" width="400" height="140" as="geometry" />
        </mxCell>
        <mxCell id="cLwnY9_HZELoblNR_DfB-2" value="- module: Module&lt;br&gt;- semester: Semester " style="text;strokeColor=#F0F0F0;fillColor=none;align=left;verticalAlign=middle;spacingLeft=4;spacingRight=4;overflow=hidden;points=[[0,0.5],[1,0.5]];portConstraint=eastwest;rotatable=0;whiteSpace=wrap;html=1;fontSize=20;fontFamily=Times New Roman;" parent="cLwnY9_HZELoblNR_DfB-1" vertex="1">
          <mxGeometry y="30" width="400" height="80" as="geometry" />
        </mxCell>
        <mxCell id="cLwnY9_HZELoblNR_DfB-3" value=" + Functions()   " style="text;strokeColor=none;fillColor=none;align=left;verticalAlign=middle;spacingLeft=4;spacingRight=4;overflow=hidden;points=[[0,0.5],[1,0.5]];portConstraint=eastwest;rotatable=0;whiteSpace=wrap;html=1;fontSize=20;fontFamily=Times New Roman;" parent="cLwnY9_HZELoblNR_DfB-1" vertex="1">
          <mxGeometry y="110" width="400" height="30" as="geometry" />
        </mxCell>
        <mxCell id="cLwnY9_HZELoblNR_DfB-5" value="&amp;lt;&amp;lt;Class&amp;gt;&amp;gt; Module&amp;nbsp;" style="swimlane;fontStyle=0;childLayout=stackLayout;horizontal=1;startSize=30;horizontalStack=0;resizeParent=1;resizeParentMax=0;resizeLast=0;collapsible=1;marginBottom=0;whiteSpace=wrap;html=1;sketch=1;hachureGap=4;jiggle=2;curveFitting=1;fontFamily=Times New Roman;fontSize=20;" parent="1" vertex="1">
          <mxGeometry x="920" y="390" width="650" height="230" as="geometry" />
        </mxCell>
        <mxCell id="cLwnY9_HZELoblNR_DfB-6" value="- Code: string&amp;nbsp;&lt;br&gt;- Name: string&amp;nbsp;&lt;br&gt;- Credits: int&amp;nbsp;&lt;br&gt;- ClassHoursPerWeek: int&lt;br&gt;- StudyHoursPerDay: List&amp;lt;double&amp;gt;&amp;nbsp;&lt;br&gt;- StudyRecords: List&amp;lt;StudyRecord&amp;gt;&amp;nbsp;&lt;br&gt;+ startDate: DateTime&amp;nbsp;&lt;br&gt;- modules: List&amp;lt;Module&amp;gt;" style="text;strokeColor=default;fillColor=none;align=left;verticalAlign=middle;spacingLeft=4;spacingRight=4;overflow=hidden;points=[[0,0.5],[1,0.5]];portConstraint=eastwest;rotatable=0;whiteSpace=wrap;html=1;fontSize=20;fontFamily=Times New Roman;" parent="cLwnY9_HZELoblNR_DfB-5" vertex="1">
          <mxGeometry y="30" width="650" height="200" as="geometry" />
        </mxCell>
        <mxCell id="cLwnY9_HZELoblNR_DfB-35" style="edgeStyle=orthogonalEdgeStyle;rounded=0;sketch=1;hachureGap=4;jiggle=2;curveFitting=1;orthogonalLoop=1;jettySize=auto;html=1;entryX=0.357;entryY=1.013;entryDx=0;entryDy=0;entryPerimeter=0;fontFamily=Times New Roman;fontSize=16;startArrow=none;startFill=0;endArrow=none;endFill=0;" parent="1" source="cLwnY9_HZELoblNR_DfB-9" target="cLwnY9_HZELoblNR_DfB-6" edge="1">
          <mxGeometry relative="1" as="geometry">
            <Array as="points">
              <mxPoint x="1152" y="929" />
              <mxPoint x="1152" y="929" />
            </Array>
            <mxPoint x="1187.7999999999997" y="870" as="targetPoint" />
          </mxGeometry>
        </mxCell>
        <mxCell id="cLwnY9_HZELoblNR_DfB-9" value="&amp;nbsp;&amp;lt;&amp;lt;Class&amp;gt;&amp;gt; Module.StudyRecord&amp;nbsp;" style="swimlane;fontStyle=0;childLayout=stackLayout;horizontal=1;startSize=30;horizontalStack=0;resizeParent=1;resizeParentMax=0;resizeLast=0;collapsible=1;marginBottom=0;whiteSpace=wrap;html=1;sketch=1;hachureGap=4;jiggle=2;curveFitting=1;fontFamily=Times New Roman;fontSize=20;" parent="1" vertex="1">
          <mxGeometry x="1020" y="990" width="320" height="100" as="geometry" />
        </mxCell>
        <mxCell id="cLwnY9_HZELoblNR_DfB-10" value="&lt;div&gt;&amp;nbsp;- Hours: double&amp;nbsp; &amp;nbsp; &amp;nbsp; &amp;nbsp; &amp;nbsp;&lt;/div&gt;&lt;div&gt;- Date: DateTime&amp;nbsp;&lt;/div&gt;" style="text;strokeColor=default;fillColor=none;align=left;verticalAlign=middle;spacingLeft=4;spacingRight=4;overflow=hidden;points=[[0,0.5],[1,0.5]];portConstraint=eastwest;rotatable=0;whiteSpace=wrap;html=1;fontSize=20;fontFamily=Times New Roman;" parent="cLwnY9_HZELoblNR_DfB-9" vertex="1">
          <mxGeometry y="30" width="320" height="70" as="geometry" />
        </mxCell>
        <mxCell id="cLwnY9_HZELoblNR_DfB-39" style="edgeStyle=orthogonalEdgeStyle;rounded=0;sketch=1;hachureGap=4;jiggle=2;curveFitting=1;orthogonalLoop=1;jettySize=auto;html=1;entryX=0.781;entryY=1.143;entryDx=0;entryDy=0;entryPerimeter=0;fontFamily=Architects Daughter;fontSource=https%3A%2F%2Ffonts.googleapis.com%2Fcss%3Ffamily%3DArchitects%2BDaughter;fontSize=16;exitX=0.501;exitY=-0.008;exitDx=0;exitDy=0;exitPerimeter=0;startArrow=none;startFill=0;endArrow=none;endFill=0;" parent="1" source="cLwnY9_HZELoblNR_DfB-13" edge="1">
          <mxGeometry relative="1" as="geometry">
            <mxPoint x="1269.96" y="1149.99" as="sourcePoint" />
            <mxPoint x="1269.88" y="1090" as="targetPoint" />
            <Array as="points">
              <mxPoint x="1271" y="1100" />
              <mxPoint x="1270" y="1100" />
            </Array>
          </mxGeometry>
        </mxCell>
        <mxCell id="cLwnY9_HZELoblNR_DfB-13" value="&amp;nbsp;&amp;lt;&amp;lt;Class&amp;gt;&amp;gt; Semester&amp;nbsp;" style="swimlane;fontStyle=0;childLayout=stackLayout;horizontal=1;startSize=30;horizontalStack=0;resizeParent=1;resizeParentMax=0;resizeLast=0;collapsible=1;marginBottom=0;whiteSpace=wrap;html=1;sketch=1;hachureGap=4;jiggle=2;curveFitting=1;fontFamily=Times New Roman;fontSize=20;" parent="1" vertex="1">
          <mxGeometry x="1030" y="1160" width="480" height="290" as="geometry" />
        </mxCell>
        <mxCell id="cLwnY9_HZELoblNR_DfB-14" value="&lt;div&gt;&lt;br&gt;&lt;/div&gt;&lt;div&gt;&amp;nbsp;- numberofModules: int&amp;nbsp; &amp;nbsp; &amp;nbsp;&lt;/div&gt;&lt;div&gt;&amp;nbsp;- time: DateTime&amp;nbsp; &amp;nbsp; &amp;nbsp; &amp;nbsp; &amp;nbsp; &amp;nbsp;&lt;/div&gt;&lt;div&gt;&amp;nbsp;- numberofWeeks: int&amp;nbsp; &amp;nbsp; &amp;nbsp; &amp;nbsp;&lt;/div&gt;&lt;div&gt;- semester: List&amp;lt;Semester&amp;gt;&lt;/div&gt;" style="text;strokeColor=default;fillColor=none;align=left;verticalAlign=middle;spacingLeft=4;spacingRight=4;overflow=hidden;points=[[0,0.5],[1,0.5]];portConstraint=eastwest;rotatable=0;whiteSpace=wrap;html=1;fontSize=20;fontFamily=Times New Roman;" parent="cLwnY9_HZELoblNR_DfB-13" vertex="1">
          <mxGeometry y="30" width="480" height="140" as="geometry" />
        </mxCell>
        <mxCell id="cLwnY9_HZELoblNR_DfB-15" value="&lt;div&gt;&amp;nbsp;+ Semester(time: DateTime, NumberofWeeks: int)&amp;nbsp;&lt;/div&gt;&lt;div&gt;&amp;nbsp;+ AddSemester(Date: DateTime, NumberofWeeks: int)&amp;nbsp;&lt;/div&gt;" style="text;strokeColor=default;fillColor=none;align=left;verticalAlign=middle;spacingLeft=4;spacingRight=4;overflow=hidden;points=[[0,0.5],[1,0.5]];portConstraint=eastwest;rotatable=0;whiteSpace=wrap;html=1;fontSize=20;fontFamily=Times New Roman;" parent="cLwnY9_HZELoblNR_DfB-13" vertex="1">
          <mxGeometry y="170" width="480" height="120" as="geometry" />
        </mxCell>
        <mxCell id="cLwnY9_HZELoblNR_DfB-17" value="Module" style="swimlane;fontStyle=0;childLayout=stackLayout;horizontal=1;startSize=30;horizontalStack=0;resizeParent=1;resizeParentMax=0;resizeLast=0;collapsible=1;marginBottom=0;whiteSpace=wrap;html=1;sketch=1;hachureGap=4;jiggle=2;curveFitting=1;fontFamily=Times New Roman;fontSize=20;" parent="1" vertex="1">
          <mxGeometry x="1999" y="460" width="340" height="190" as="geometry" />
        </mxCell>
        <mxCell id="cLwnY9_HZELoblNR_DfB-20" value="name: string&lt;br&gt;code: string&lt;br&gt;credits: int&lt;br&gt;classHours: int&amp;nbsp;" style="text;strokeColor=none;fillColor=none;align=left;verticalAlign=middle;spacingLeft=4;spacingRight=4;overflow=hidden;points=[[0,0.5],[1,0.5]];portConstraint=eastwest;rotatable=0;whiteSpace=wrap;html=1;fontSize=20;fontFamily=Times New Roman;" parent="cLwnY9_HZELoblNR_DfB-17" vertex="1">
          <mxGeometry y="30" width="340" height="160" as="geometry" />
        </mxCell>
        <mxCell id="trnYDFIzoloPD32JqK8Z-2" style="edgeStyle=orthogonalEdgeStyle;rounded=0;sketch=1;hachureGap=4;jiggle=2;curveFitting=1;orthogonalLoop=1;jettySize=auto;html=1;exitX=0.5;exitY=0;exitDx=0;exitDy=0;entryX=0.365;entryY=1;entryDx=0;entryDy=0;entryPerimeter=0;fontFamily=Architects Daughter;fontSource=https%3A%2F%2Ffonts.googleapis.com%2Fcss%3Ffamily%3DArchitects%2BDaughter;fontSize=16;endArrow=none;endFill=0;" edge="1" parent="1" source="cLwnY9_HZELoblNR_DfB-21" target="cLwnY9_HZELoblNR_DfB-20">
          <mxGeometry relative="1" as="geometry" />
        </mxCell>
        <mxCell id="cLwnY9_HZELoblNR_DfB-21" value="AddModule" style="swimlane;fontStyle=0;childLayout=stackLayout;horizontal=1;startSize=30;horizontalStack=0;resizeParent=1;resizeParentMax=0;resizeLast=0;collapsible=1;marginBottom=0;whiteSpace=wrap;html=1;sketch=1;hachureGap=4;jiggle=2;curveFitting=1;fontFamily=Times New Roman;fontSize=20;" parent="1" vertex="1">
          <mxGeometry x="1909" y="740" width="430" height="140" as="geometry" />
        </mxCell>
        <mxCell id="cLwnY9_HZELoblNR_DfB-24" value="&lt;div style=&quot;text-align: left;&quot;&gt;&lt;span style=&quot;background-color: initial;&quot;&gt;name: string,&lt;/span&gt;&lt;/div&gt;code: string&lt;br&gt;credits: int&lt;br&gt;&amp;nbsp;classHours: int&amp;nbsp;" style="text;html=1;align=center;verticalAlign=middle;resizable=0;points=[];autosize=1;strokeColor=none;fillColor=none;fontSize=20;fontFamily=Times New Roman;" parent="cLwnY9_HZELoblNR_DfB-21" vertex="1">
          <mxGeometry y="30" width="430" height="110" as="geometry" />
        </mxCell>
        <mxCell id="cLwnY9_HZELoblNR_DfB-25" value="SelfStudyHoursPerWeek" style="swimlane;fontStyle=0;childLayout=stackLayout;horizontal=1;startSize=30;horizontalStack=0;resizeParent=1;resizeParentMax=0;resizeLast=0;collapsible=1;marginBottom=0;whiteSpace=wrap;html=1;sketch=1;hachureGap=4;jiggle=2;curveFitting=1;fontFamily=Times New Roman;fontSize=20;" parent="1" vertex="1">
          <mxGeometry x="1820" y="1010" width="340" height="60" as="geometry" />
        </mxCell>
        <mxCell id="cLwnY9_HZELoblNR_DfB-26" value="numberOfWeeks: int" style="text;strokeColor=none;fillColor=none;align=left;verticalAlign=middle;spacingLeft=4;spacingRight=4;overflow=hidden;points=[[0,0.5],[1,0.5]];portConstraint=eastwest;rotatable=0;whiteSpace=wrap;html=1;fontSize=20;fontFamily=Times New Roman;" parent="cLwnY9_HZELoblNR_DfB-25" vertex="1">
          <mxGeometry y="30" width="340" height="30" as="geometry" />
        </mxCell>
        <mxCell id="cLwnY9_HZELoblNR_DfB-31" style="edgeStyle=orthogonalEdgeStyle;rounded=0;sketch=1;hachureGap=4;jiggle=2;curveFitting=1;orthogonalLoop=1;jettySize=auto;html=1;exitX=0;exitY=0.5;exitDx=0;exitDy=0;fontFamily=Times New Roman;fontSize=16;startArrow=none;startFill=0;endArrow=none;endFill=0;" parent="1" source="cLwnY9_HZELoblNR_DfB-29" target="cLwnY9_HZELoblNR_DfB-15" edge="1">
          <mxGeometry relative="1" as="geometry" />
        </mxCell>
        <mxCell id="cLwnY9_HZELoblNR_DfB-32" style="edgeStyle=orthogonalEdgeStyle;rounded=0;sketch=1;hachureGap=4;jiggle=2;curveFitting=1;orthogonalLoop=1;jettySize=auto;html=1;exitX=0;exitY=0;exitDx=0;exitDy=0;entryX=0.907;entryY=1.031;entryDx=0;entryDy=0;entryPerimeter=0;fontFamily=Times New Roman;fontSize=16;startArrow=none;startFill=0;endArrow=none;endFill=0;" parent="1" source="cLwnY9_HZELoblNR_DfB-29" target="cLwnY9_HZELoblNR_DfB-6" edge="1">
          <mxGeometry relative="1" as="geometry">
            <mxPoint x="1536.85" y="870" as="targetPoint" />
          </mxGeometry>
        </mxCell>
        <mxCell id="cLwnY9_HZELoblNR_DfB-29" value="RemainingSelfStudy" style="swimlane;fontStyle=0;childLayout=stackLayout;horizontal=1;startSize=30;horizontalStack=0;resizeParent=1;resizeParentMax=0;resizeLast=0;collapsible=1;marginBottom=0;whiteSpace=wrap;html=1;sketch=1;hachureGap=4;jiggle=2;curveFitting=1;fontFamily=Times New Roman;fontSize=20;" parent="1" vertex="1">
          <mxGeometry x="1820" y="1130" width="340" height="60" as="geometry" />
        </mxCell>
        <mxCell id="cLwnY9_HZELoblNR_DfB-30" value="CurrentWeeks: int" style="text;strokeColor=none;fillColor=none;align=left;verticalAlign=middle;spacingLeft=4;spacingRight=4;overflow=hidden;points=[[0,0.5],[1,0.5]];portConstraint=eastwest;rotatable=0;whiteSpace=wrap;html=1;fontSize=20;fontFamily=Times New Roman;" parent="cLwnY9_HZELoblNR_DfB-29" vertex="1">
          <mxGeometry y="30" width="340" height="30" as="geometry" />
        </mxCell>
        <mxCell id="cLwnY9_HZELoblNR_DfB-36" style="edgeStyle=orthogonalEdgeStyle;rounded=0;sketch=1;hachureGap=4;jiggle=2;curveFitting=1;orthogonalLoop=1;jettySize=auto;html=1;entryX=1.005;entryY=0.752;entryDx=0;entryDy=0;entryPerimeter=0;fontFamily=Times New Roman;fontSize=16;startArrow=none;startFill=0;endArrow=none;endFill=0;" parent="1" source="cLwnY9_HZELoblNR_DfB-20" target="cLwnY9_HZELoblNR_DfB-6" edge="1">
          <mxGeometry relative="1" as="geometry" />
        </mxCell>
        <mxCell id="cLwnY9_HZELoblNR_DfB-38" style="edgeStyle=orthogonalEdgeStyle;rounded=0;sketch=1;hachureGap=4;jiggle=2;curveFitting=1;orthogonalLoop=1;jettySize=auto;html=1;fontFamily=Times New Roman;fontSize=16;startArrow=none;startFill=0;endArrow=none;endFill=0;" parent="1" source="cLwnY9_HZELoblNR_DfB-3" target="cLwnY9_HZELoblNR_DfB-14" edge="1">
          <mxGeometry relative="1" as="geometry" />
        </mxCell>
        <mxCell id="trnYDFIzoloPD32JqK8Z-1" value="0..*" style="text;html=1;align=center;verticalAlign=middle;resizable=0;points=[];autosize=1;strokeColor=none;fillColor=none;fontSize=20;fontFamily=Architects Daughter;" vertex="1" parent="1">
          <mxGeometry x="574" y="874" width="46" height="36" as="geometry" />
        </mxCell>
        <mxCell id="trnYDFIzoloPD32JqK8Z-3" value="1..*" style="text;html=1;align=center;verticalAlign=middle;resizable=0;points=[];autosize=1;strokeColor=none;fillColor=none;fontSize=20;fontFamily=Architects Daughter;" vertex="1" parent="1">
          <mxGeometry x="873" y="531" width="36" height="36" as="geometry" />
        </mxCell>
        <mxCell id="trnYDFIzoloPD32JqK8Z-4" value="1..1" style="text;html=1;align=center;verticalAlign=middle;resizable=0;points=[];autosize=1;strokeColor=none;fillColor=none;fontSize=20;fontFamily=Architects Daughter;" vertex="1" parent="1">
          <mxGeometry x="1786" y="1166" width="29" height="36" as="geometry" />
        </mxCell>
        <mxCell id="trnYDFIzoloPD32JqK8Z-5" value="1..1" style="text;html=1;align=center;verticalAlign=middle;resizable=0;points=[];autosize=1;strokeColor=none;fillColor=none;fontSize=20;fontFamily=Architects Daughter;" vertex="1" parent="1">
          <mxGeometry x="1506" y="1360" width="29" height="36" as="geometry" />
        </mxCell>
        <mxCell id="trnYDFIzoloPD32JqK8Z-6" value="1..1" style="text;html=1;align=center;verticalAlign=middle;resizable=0;points=[];autosize=1;strokeColor=none;fillColor=none;fontSize=20;fontFamily=Architects Daughter;" vertex="1" parent="1">
          <mxGeometry x="1829" y="972" width="29" height="36" as="geometry" />
        </mxCell>
        <mxCell id="trnYDFIzoloPD32JqK8Z-7" value="0..*" style="text;html=1;align=center;verticalAlign=middle;resizable=0;points=[];autosize=1;strokeColor=none;fillColor=none;fontSize=20;fontFamily=Architects Daughter;" vertex="1" parent="1">
          <mxGeometry x="1951" y="530" width="46" height="36" as="geometry" />
        </mxCell>
        <mxCell id="trnYDFIzoloPD32JqK8Z-8" value="0..*" style="text;html=1;align=center;verticalAlign=middle;resizable=0;points=[];autosize=1;strokeColor=none;fillColor=none;fontSize=20;fontFamily=Architects Daughter;" vertex="1" parent="1">
          <mxGeometry x="1566" y="536" width="46" height="36" as="geometry" />
        </mxCell>
        <mxCell id="trnYDFIzoloPD32JqK8Z-9" value="0..*" style="text;html=1;align=center;verticalAlign=middle;resizable=0;points=[];autosize=1;strokeColor=none;fillColor=none;fontSize=20;fontFamily=Architects Daughter;" vertex="1" parent="1">
          <mxGeometry x="2070" y="708" width="46" height="36" as="geometry" />
        </mxCell>
        <mxCell id="trnYDFIzoloPD32JqK8Z-10" value="0..*" style="text;html=1;align=center;verticalAlign=middle;resizable=0;points=[];autosize=1;strokeColor=none;fillColor=none;fontSize=20;fontFamily=Architects Daughter;" vertex="1" parent="1">
          <mxGeometry x="2080" y="648" width="46" height="36" as="geometry" />
        </mxCell>
        <mxCell id="trnYDFIzoloPD32JqK8Z-11" value="0..*" style="text;html=1;align=center;verticalAlign=middle;resizable=0;points=[];autosize=1;strokeColor=none;fillColor=none;fontSize=20;fontFamily=Architects Daughter;" vertex="1" parent="1">
          <mxGeometry x="1276" y="1131" width="46" height="36" as="geometry" />
        </mxCell>
        <mxCell id="trnYDFIzoloPD32JqK8Z-12" value="1..1" style="text;html=1;align=center;verticalAlign=middle;resizable=0;points=[];autosize=1;strokeColor=none;fillColor=none;fontSize=20;fontFamily=Architects Daughter;" vertex="1" parent="1">
          <mxGeometry x="1152" y="955" width="29" height="36" as="geometry" />
        </mxCell>
        <mxCell id="trnYDFIzoloPD32JqK8Z-13" value="1..*" style="text;html=1;align=center;verticalAlign=middle;resizable=0;points=[];autosize=1;strokeColor=none;fillColor=none;fontSize=20;fontFamily=Architects Daughter;" vertex="1" parent="1">
          <mxGeometry x="1149" y="620" width="36" height="36" as="geometry" />
        </mxCell>
        <mxCell id="trnYDFIzoloPD32JqK8Z-14" value="1..1" style="text;html=1;align=center;verticalAlign=middle;resizable=0;points=[];autosize=1;strokeColor=none;fillColor=none;fontSize=20;fontFamily=Architects Daughter;" vertex="1" parent="1">
          <mxGeometry x="1571" y="595" width="29" height="36" as="geometry" />
        </mxCell>
        <mxCell id="trnYDFIzoloPD32JqK8Z-15" value="" style="endArrow=classic;html=1;rounded=0;sketch=1;hachureGap=4;jiggle=2;curveFitting=1;fontFamily=Architects Daughter;fontSource=https%3A%2F%2Ffonts.googleapis.com%2Fcss%3Ffamily%3DArchitects%2BDaughter;fontSize=16;" edge="1" parent="1">
          <mxGeometry width="50" height="50" relative="1" as="geometry">
            <mxPoint x="570" y="815" as="sourcePoint" />
            <mxPoint x="570" y="717" as="targetPoint" />
          </mxGeometry>
        </mxCell>
        <mxCell id="trnYDFIzoloPD32JqK8Z-16" value="CREATE&amp;nbsp;&lt;br&gt;Function&lt;br&gt;Name" style="text;html=1;align=center;verticalAlign=middle;resizable=0;points=[];autosize=1;strokeColor=none;fillColor=none;fontSize=20;fontFamily=Architects Daughter;" vertex="1" parent="1">
          <mxGeometry x="456" y="730" width="103" height="84" as="geometry" />
        </mxCell>
        <mxCell id="trnYDFIzoloPD32JqK8Z-17" value="Record&amp;nbsp;" style="text;html=1;align=center;verticalAlign=middle;resizable=0;points=[];autosize=1;strokeColor=none;fillColor=none;fontSize=20;fontFamily=Architects Daughter;" vertex="1" parent="1">
          <mxGeometry x="1177" y="844" width="96" height="36" as="geometry" />
        </mxCell>
        <mxCell id="trnYDFIzoloPD32JqK8Z-18" value="" style="endArrow=classic;html=1;rounded=0;sketch=1;hachureGap=4;jiggle=2;curveFitting=1;fontFamily=Architects Daughter;fontSource=https%3A%2F%2Ffonts.googleapis.com%2Fcss%3Ffamily%3DArchitects%2BDaughter;fontSize=16;" edge="1" parent="1">
          <mxGeometry width="50" height="50" relative="1" as="geometry">
            <mxPoint x="1172" y="908" as="sourcePoint" />
            <mxPoint x="1172" y="810" as="targetPoint" />
          </mxGeometry>
        </mxCell>
        <mxCell id="trnYDFIzoloPD32JqK8Z-19" value="" style="endArrow=classic;html=1;rounded=0;sketch=1;hachureGap=4;jiggle=2;curveFitting=1;fontFamily=Architects Daughter;fontSource=https%3A%2F%2Ffonts.googleapis.com%2Fcss%3Ffamily%3DArchitects%2BDaughter;fontSize=16;" edge="1" parent="1">
          <mxGeometry width="50" height="50" relative="1" as="geometry">
            <mxPoint x="1682" y="1238" as="sourcePoint" />
            <mxPoint x="1682" y="1329" as="targetPoint" />
          </mxGeometry>
        </mxCell>
        <mxCell id="trnYDFIzoloPD32JqK8Z-20" value="Records Weeks" style="text;html=1;align=center;verticalAlign=middle;resizable=0;points=[];autosize=1;strokeColor=none;fillColor=none;fontSize=20;fontFamily=Architects Daughter;" vertex="1" parent="1">
          <mxGeometry x="1694" y="1261" width="169" height="36" as="geometry" />
        </mxCell>
        <mxCell id="trnYDFIzoloPD32JqK8Z-22" value="Record Module" style="text;html=1;align=center;verticalAlign=middle;resizable=0;points=[];autosize=1;strokeColor=none;fillColor=none;fontSize=20;fontFamily=Architects Daughter;" vertex="1" parent="1">
          <mxGeometry x="2176" y="684" width="158" height="36" as="geometry" />
        </mxCell>
        <mxCell id="trnYDFIzoloPD32JqK8Z-23" value="" style="endArrow=classic;html=1;rounded=0;sketch=1;hachureGap=4;jiggle=2;curveFitting=1;fontFamily=Architects Daughter;fontSource=https%3A%2F%2Ffonts.googleapis.com%2Fcss%3Ffamily%3DArchitects%2BDaughter;fontSize=16;" edge="1" parent="1">
          <mxGeometry width="50" height="50" relative="1" as="geometry">
            <mxPoint x="2162" y="748" as="sourcePoint" />
            <mxPoint x="2162" y="650" as="targetPoint" />
          </mxGeometry>
        </mxCell>
        <mxCell id="trnYDFIzoloPD32JqK8Z-24" value="Adds Module" style="text;html=1;align=center;verticalAlign=middle;resizable=0;points=[];autosize=1;strokeColor=none;fillColor=none;fontSize=20;fontFamily=Architects Daughter;" vertex="1" parent="1">
          <mxGeometry x="1733" y="462" width="132" height="36" as="geometry" />
        </mxCell>
        <mxCell id="trnYDFIzoloPD32JqK8Z-25" value="" style="endArrow=classic;html=1;rounded=0;sketch=1;hachureGap=4;jiggle=2;curveFitting=1;fontFamily=Architects Daughter;fontSource=https%3A%2F%2Ffonts.googleapis.com%2Fcss%3Ffamily%3DArchitects%2BDaughter;fontSize=16;" edge="1" parent="1">
          <mxGeometry width="50" height="50" relative="1" as="geometry">
            <mxPoint x="1873" y="524" as="sourcePoint" />
            <mxPoint x="1677" y="524" as="targetPoint" />
          </mxGeometry>
        </mxCell>
      </root>
    </mxGraphModel>
  </diagram>
</mxfile>
